<!--?xml version="1.0" encoding="utf-8"?-->
<!-- Generator: Adobe Illustrator 18.1.1, SVG Export Plug-In . SVG Version: 6.00 Build 0)  -->

<svg version="1.1" id="_x32_" xmlns="http://www.w3.org/2000/svg" xmlns:xlink="http://www.w3.org/1999/xlink" x="0px" y="0px" viewBox="0 0 512 512" style="width: 256px; height: 256px; opacity: 1;" xml:space="preserve">
<style type="text/css">
	.st0{fill:#4B4B4B;}
</style>
<g>
	<path class="st0" d="M429.227,205.4c6.415,12.83-22.875,58.288-67.81,45.458c-40.228-11.5-29.536-58.658,29.29-74.341
		c96.285-25.674,99.5-157.265,6.415-176.517c44.934,96.277-44.92,141.212-73.81,112.322c-28.874-28.882-9.63-67.395,28.89-86.647
		c-12.844-16.053-96.285-12.846-96.285,70.602c0,48.573,9.292,85.855-25.674,93.078c-37.982,7.838-59.78-38.244-14.861-63.918
		c-30.458-13.407-69.979,4.784-83.147,40.636c-13.045,35.536-18.198,45.265-36.351,61.464
		c-31.844,28.39-48.858,71.786-48.858,117.814c0,92.039,74.61,166.649,166.65,166.649c77.64,0,142.866-53.081,161.372-124.944
		c3.446-13.33,1.262-43.996,24.137-57.226C463.102,292.862,467.071,217.045,429.227,205.4z" style="fill: rgb(230, 133, 94);"></path>
</g>
</svg>
