<!--?xml version="1.0" encoding="utf-8"?-->
<!-- Generator: Adobe Illustrator 18.1.1, SVG Export Plug-In . SVG Version: 6.00 Build 0)  -->

<svg version="1.1" id="_x32_" xmlns="http://www.w3.org/2000/svg" xmlns:xlink="http://www.w3.org/1999/xlink" x="0px" y="0px" viewBox="0 0 512 512" style="width: 256px; height: 256px; opacity: 1;" xml:space="preserve">
<style type="text/css">
	.st0{fill:#4B4B4B;}
</style>
<g>
	<path class="st0" d="M269.408,305.205c-8.008,1.06-13.692,6.328-17.053,13.92c-3.501,7.31-7.867,34.114-7.867,41.259
		c0,8.597,4.946,13.339,13.41,12.216c8.008-1.06,13.692-6.336,17.194-13.936c3.345-7.302,7.726-34.114,7.726-41.251
		C282.819,308.808,278.014,304.058,269.408,305.205z" style="fill: rgb(230, 133, 94);"></path>
	<path class="st0" d="M392.172,147.731c13.598,34.6-10.914,87.102-45.319,68.762c-25.344-13.528-18.732-38.095,0.456-72.5
		c27.26-48.843-20.194-82.996-20.194-82.996s-9.013,62.081-60.738,51.402C222.128,103.268,220.306,27.526,239.464,0
		c-69.092,8.212-79.267,107.563-46.951,144.15c38.864,43.999,31.594,102.649-18.451,100.592
		c-36.398-1.492-53.231-46.943-33.965-91.712c-65.763,27.213-92.19,109.904-87.338,161.722
		c3.282,34.805,10.411,76.778,39.633,112.682c51.71,72.099,146.821,104.148,234.237,72.208
		c84.402-30.84,135.859-111.889,133.065-197.044C459.254,264.197,450.617,186.932,392.172,147.731z M199.123,395.55
		c-0.141,0.895-0.722,1.554-1.602,1.672l-17.634,2.34c-0.88,0.11-1.461-0.392-1.319-1.288l6.862-39.53
		c0.142-0.598-0.157-0.856-0.738-0.778l-31.327,4.153c-0.58,0.078-0.879,0.408-1.02,1.013l-6.847,39.524
		c-0.157,0.903-0.596,1.539-1.46,1.656l-17.634,2.34c-0.88,0.118-1.46-0.392-1.319-1.287l17.053-98.448
		c0.142-0.888,0.738-1.555,1.602-1.672l17.634-2.34c0.88-0.117,1.32,0.416,1.178,1.303l-6.564,38.472
		c-0.142,0.613,0.141,0.864,0.722,0.786l31.185-4.138c0.597-0.079,0.88-0.408,1.021-1.013l6.705-38.487
		c0.157-0.895,0.738-1.562,1.601-1.672l17.634-2.34c0.879-0.118,1.46,0.392,1.319,1.288L199.123,395.55z M293.606,363.344
		c-7.883,16.936-20.854,25.501-38.487,27.841c-18.654,2.473-31.327-6.195-31.327-26.161c0-8.888,4.804-39.398,9.908-50.57
		c7.867-16.928,20.994-25.525,38.472-27.841c18.655-2.473,31.342,6.194,31.342,26.16
		C303.515,321.668,298.71,352.178,293.606,363.344z M389.236,289.455c-0.142,0.895-0.722,1.554-1.602,1.672l-24.339,3.227
		c-0.581,0.078-0.88,0.408-1.021,1.005l-13.85,80.39c-0.141,0.903-0.722,1.554-1.602,1.672l-17.634,2.339
		c-0.723,0.094-1.303-0.408-1.162-1.303l13.85-80.39c0.142-0.604-0.157-0.856-0.738-0.777l-24.182,3.211
		c-0.88,0.11-1.461-0.392-1.32-1.287l2.764-15.672c0.157-0.887,0.738-1.554,1.617-1.672l70.678-9.374
		c0.879-0.117,1.46,0.4,1.303,1.288L389.236,289.455z" style="fill: rgb(230, 133, 94);"></path>
</g>
</svg>
